<svg xmlns="http://www.w3.org/2000/svg" viewBox="0 0 164 164"><g id="Layer_2" data-name="Layer 2"><g id="Layer_2-2" data-name="Layer 2"><polygon points="0 100.11 135.05 0 128.94 0 0 95.58 0 100.11" style="fill:none"/><path d="M0,112.11,149.23,1.49a22.5,22.5,0,0,0-4.49-1.2L0,107.58Z" style="fill:none"/><path d="M0,124.11,157.75,7.18A24.15,24.15,0,0,0,155,4.69L0,119.58Z" style="fill:none"/><polygon points="0 28.11 37.92 0 31.81 0 0 23.58 0 28.11" style="fill:none"/><path d="M0,136.11,162.76,15.46A23.73,23.73,0,0,0,161.27,12L0,131.58Z" style="fill:none"/><path d="M1.36,15.1,21.69,0A22.76,22.76,0,0,0,11.57,3L7.17,6.26A23,23,0,0,0,1.36,15.1Z" style="fill:none"/><polygon points="0 40.11 54.11 0 47.99 0 0 35.58 0 40.11" style="fill:none"/><polygon points="0 88.11 118.86 0 112.75 0 0 83.58 0 88.11" style="fill:none"/><polygon points="0 76.11 102.67 0 96.56 0 0 71.58 0 76.11" style="fill:none"/><polygon points="0 64.11 86.49 0 80.37 0 0 59.58 0 64.11" style="fill:none"/><polygon points="0 52.11 70.3 0 64.18 0 0 47.58 0 52.11" style="fill:none"/><polygon points="91.88 164 164 110.54 164 106.01 85.77 164 91.88 164" style="fill:none"/><polygon points="59.51 164 164 86.54 164 82.01 53.39 164 59.51 164" style="fill:none"/><path d="M22.89,164h4.24L164,62.54V58L21.12,163.92C21.7,164,22.29,164,22.89,164Z" style="fill:none"/><polygon points="43.32 164 164 74.54 164 70.01 37.2 164 43.32 164" style="fill:none"/><path d="M140.45,164l22.74-16.86A22.7,22.7,0,0,0,164,142l-29.64,22Z" style="fill:none"/><polygon points="108.07 164 164 122.54 164 118.01 101.96 164 108.07 164" style="fill:none"/><polygon points="124.26 164 164 134.54 164 130.01 118.15 164 124.26 164" style="fill:none"/><polygon points="75.69 164 164 98.54 164 94.01 69.58 164 75.69 164" style="fill:none"/><path d="M5.53,156,164,38.54V34L3.38,153.07A21.29,21.29,0,0,0,5.53,156Z" style="fill:none"/><path d="M13.6,162,164,50.54V46L10.1,160.09A22.48,22.48,0,0,0,13.6,162Z" style="fill:none"/><path d="M.9,147.44,164,26.54V22.89c0-.29,0-.58,0-.86L.12,143.49A22.45,22.45,0,0,0,.9,147.44Z" style="fill:none"/><path d="M141.11,164a22.89,22.89,0,0,0,22.08-16.86L140.45,164Z"/><path d="M134.34,164,164,142c0-.31,0-.61,0-.92v-6.57L124.26,164Z"/><polygon points="118.15 164 164 130.01 164 122.54 108.07 164 118.15 164"/><polygon points="101.96 164 164 118.01 164 110.54 91.88 164 101.96 164"/><polygon points="85.77 164 164 106.01 164 98.54 75.69 164 85.77 164"/><polygon points="69.58 164 164 94.01 164 86.54 59.51 164 69.58 164"/><polygon points="53.39 164 164 82.01 164 74.54 43.32 164 53.39 164"/><polygon points="37.2 164 164 70.01 164 62.54 27.13 164 37.2 164"/><path d="M21.12,163.92,164,58V50.54L13.6,162A22.8,22.8,0,0,0,21.12,163.92Z"/><path d="M10.1,160.09,164,46V38.54L5.53,156A22.49,22.49,0,0,0,10.1,160.09Z"/><path d="M3.38,153.07,164,34V26.54L.9,147.44A22.22,22.22,0,0,0,3.38,153.07Z"/><path d="M0,141.11a23.56,23.56,0,0,0,.12,2.38L164,22a23,23,0,0,0-1.22-6.57L0,136.11Z"/><path d="M0,131.58,161.27,12a22.93,22.93,0,0,0-3.52-4.86L0,124.11Z"/><path d="M0,119.58,155,4.69a22.83,22.83,0,0,0-5.76-3.2L0,112.11Z"/><path d="M0,107.58,144.74.29A23,23,0,0,0,141.11,0h-6.06L0,100.11Z"/><polygon points="0 95.58 128.94 0 118.86 0 0 88.11 0 95.58"/><polygon points="0 83.58 112.75 0 102.67 0 0 76.11 0 83.58"/><polygon points="0 71.58 96.56 0 86.49 0 0 64.11 0 71.58"/><polygon points="0 59.58 80.37 0 70.3 0 0 52.11 0 59.58"/><polygon points="0 47.58 64.18 0 54.11 0 0 40.11 0 47.58"/><polygon points="0 35.58 47.99 0 37.92 0 0 28.11 0 35.58"/><path d="M0,22.89v.69L31.81,0H22.89q-.6,0-1.2,0L1.36,15.1A22.86,22.86,0,0,0,0,22.89Z"/><path d="M11.57,3a23,23,0,0,0-4.4,3.26Z"/><path d="M123.49,130.88a44.63,44.63,0,0,1-8,4.71,72,72,0,0,1-12.92,4.62A60.4,60.4,0,0,1,86,142a66.56,66.56,0,0,1-26.1-5.22A59.15,59.15,0,0,1,40.23,123.1a61,61,0,0,1-12.49-19.85,65.72,65.72,0,0,1-4.37-24,73.14,73.14,0,0,1,4.45-25.76A59.92,59.92,0,0,1,40.49,32.91,57.71,57.71,0,0,1,60,19.47a63,63,0,0,1,24.81-4.79,65,65,0,0,1,21,3.17,70.67,70.67,0,0,1,15.66,7.27l-7.88,18.65a61.35,61.35,0,0,0-12-6.76,39.93,39.93,0,0,0-16.25-3.16,37.76,37.76,0,0,0-15.66,3.34A41,41,0,0,0,56.49,46.6a45.87,45.87,0,0,0-9.07,14.2,45.38,45.38,0,0,0-3.34,17.37,52.24,52.24,0,0,0,3,17.89,41.34,41.34,0,0,0,8.55,14.29,38.15,38.15,0,0,0,13.27,9.24,44.43,44.43,0,0,0,17.45,3.25,44.4,44.4,0,0,0,28.76-9.75Z" style="fill:#eaeaea"/></g></g></svg>